<svg width="813" height="1006" viewBox="0 0 813 1006" fill="none" xmlns="http://www.w3.org/2000/svg">
<g clip-path="url(#clip0)">
<g opacity="0.2" clip-path="url(#clip1)">
<path d="M68.1714 234.772L157.924 145.193V199.01L68.1714 288.415V234.772Z" fill="#460E7B" fill-opacity="0.6"/>
<rect x="157.923" y="145.193" width="54.8582" height="53.8166" fill="#460E7B" fill-opacity="0.2"/>
<path d="M48.5547 144.847H103.76L48.5547 200.052V144.847Z" fill="#460E7B" fill-opacity="0.6"/>
<path d="M212.833 145.425L302.586 55.8467V109.663L212.833 199.068V145.425Z" fill="#460E7B" fill-opacity="0.6"/>
<rect x="302.585" y="55.8467" width="54.8582" height="53.8166" fill="#460E7B" fill-opacity="0.2"/>
<path d="M193.217 54.0693H248.422L193.217 109.275V54.0693Z" fill="#460E7B" fill-opacity="0.6"/>
<path d="M357.443 55.9643L447.196 -33.6143V20.2023L357.443 109.607V55.9643Z" fill="#460E7B" fill-opacity="0.6"/>
<rect x="447.819" y="-33.8369" width="54.8582" height="53.8166" fill="#460E7B" fill-opacity="0.2"/>
<path d="M338.45 -34.1865H393.656L338.45 21.0189V-34.1865Z" fill="#460E7B" fill-opacity="0.6"/>
<path d="M87.8779 378.294L177.63 288.716V342.532L87.8779 431.937V378.294Z" fill="#460E7B" fill-opacity="0.6"/>
<rect x="177.63" y="288.716" width="54.8582" height="53.8166" fill="#460E7B" fill-opacity="0.2"/>
<path d="M68.2612 288.369H123.467L68.2612 343.575V288.369Z" fill="#460E7B" fill-opacity="0.6"/>
<path d="M232.541 288.943L322.293 199.364V253.181L232.541 342.586V288.943Z" fill="#460E7B" fill-opacity="0.6"/>
<rect x="322.292" y="199.364" width="54.8582" height="53.8166" fill="#460E7B" fill-opacity="0.2"/>
<path d="M212.924 199.018H268.129L212.924 254.223V199.018Z" fill="#460E7B" fill-opacity="0.6"/>
<path d="M377.15 199.485L466.902 109.906V163.723L377.15 253.128V199.485Z" fill="#460E7B" fill-opacity="0.6"/>
<rect x="467.525" y="109.681" width="54.8582" height="53.8166" fill="#460E7B" fill-opacity="0.2"/>
<path d="M358.157 109.334H413.363L358.157 164.539V109.334Z" fill="#460E7B" fill-opacity="0.6"/>
<path d="M108.013 521.814L197.765 432.235V486.052L108.013 575.457V521.814Z" fill="#460E7B" fill-opacity="0.6"/>
<rect x="197.766" y="432.235" width="54.8582" height="53.8166" fill="#460E7B" fill-opacity="0.2"/>
<path d="M88.397 431.888H143.602L88.397 487.093V431.888Z" fill="#460E7B" fill-opacity="0.6"/>
<path d="M252.675 432.459L342.427 342.881V396.697L252.675 486.102V432.459Z" fill="#460E7B" fill-opacity="0.6"/>
<rect x="342.428" y="342.881" width="54.8582" height="53.8166" fill="#460E7B" fill-opacity="0.2"/>
<path d="M233.059 342.534H288.264L233.059 397.74V342.534Z" fill="#460E7B" fill-opacity="0.6"/>
<path d="M397.286 343.004L487.038 253.426V307.242L397.286 396.647V343.004Z" fill="#460E7B" fill-opacity="0.6"/>
<rect x="487.662" y="253.201" width="54.8582" height="53.8166" fill="#460E7B" fill-opacity="0.2"/>
<path d="M378.293 252.854H433.498L378.293 308.059V252.854Z" fill="#460E7B" fill-opacity="0.6"/>
<path d="M542.287 252.626L632.039 163.048V216.864L542.287 306.269V252.626Z" fill="#460E7B" fill-opacity="0.6"/>
<rect x="632.039" y="163.048" width="54.8582" height="53.8166" fill="#460E7B" fill-opacity="0.2"/>
<path d="M522.67 162.7H577.875L522.67 217.906V162.7Z" fill="#460E7B" fill-opacity="0.6"/>
<path d="M686.948 163.273L776.7 73.6943V127.511L686.948 216.916V163.273Z" fill="#460E7B" fill-opacity="0.6"/>
<rect x="776.701" y="73.6943" width="54.8582" height="53.8166" fill="#460E7B" fill-opacity="0.2"/>
<path d="M667.332 73.3467H722.537L667.332 128.552V73.3467Z" fill="#460E7B" fill-opacity="0.6"/>
<path d="M272.241 575.793L361.993 486.215V540.031L272.241 629.436V575.793Z" fill="#460E7B" fill-opacity="0.6"/>
<rect x="361.993" y="486.215" width="54.8582" height="53.8166" fill="#460E7B" fill-opacity="0.2"/>
<path d="M252.624 485.867H307.829L252.624 541.073V485.867Z" fill="#460E7B" fill-opacity="0.6"/>
<path d="M416.902 486.44L506.654 396.861V450.678L416.902 540.083V486.44Z" fill="#460E7B" fill-opacity="0.6"/>
<rect x="506.655" y="396.861" width="54.8582" height="53.8166" fill="#460E7B" fill-opacity="0.2"/>
<path d="M397.286 396.514H452.492L397.286 451.719V396.514Z" fill="#460E7B" fill-opacity="0.6"/>
<path d="M561.513 396.984L651.265 307.405V361.222L561.513 450.627V396.984Z" fill="#460E7B" fill-opacity="0.6"/>
<rect x="651.195" y="307.833" width="54.8582" height="53.8166" fill="#460E7B" fill-opacity="0.2"/>
<path d="M542.52 306.833H597.725L542.52 362.038V306.833Z" fill="#460E7B" fill-opacity="0.6"/>
<path d="M706.513 308.32L796.265 218.741V272.558L706.513 361.963V308.32Z" fill="#460E7B" fill-opacity="0.6"/>
<rect x="796.265" y="218.741" width="54.8582" height="53.8166" fill="#460E7B" fill-opacity="0.2"/>
<path d="M686.896 218.395H742.102L686.896 273.6V218.395Z" fill="#460E7B" fill-opacity="0.6"/>
<path d="M522.293 109.82L612.045 20.2412V74.0578L522.293 163.463V109.82Z" fill="#460E7B" fill-opacity="0.6"/>
<rect x="612.045" y="20.2412" width="54.8582" height="53.8166" fill="#460E7B" fill-opacity="0.2"/>
<path d="M502.677 19.8945H557.882L502.677 75.0999V19.8945Z" fill="#460E7B" fill-opacity="0.6"/>
<path d="M666.955 20.4653L756.707 -69.1133V-15.2967L666.955 74.1083V20.4653Z" fill="#460E7B" fill-opacity="0.6"/>
<path d="M-56.979 467.386L32.7731 377.808V431.624L-56.979 521.029V467.386Z" fill="#460E7B" fill-opacity="0.6"/>
<rect x="32.9678" y="378.156" width="54.8582" height="53.8166" fill="#460E7B" fill-opacity="0.2"/>
<path d="M-76.686 324.01L13.0661 234.432V288.248L-76.686 377.653V324.01Z" fill="#460E7B" fill-opacity="0.6"/>
<rect x="13.2607" y="234.78" width="54.8582" height="53.8166" fill="#460E7B" fill-opacity="0.2"/>
<path d="M48.4116 90.9514L138.522 0.801758V54.3539L48.4116 144.594V90.9514Z" fill="#460E7B" fill-opacity="0.6"/>
<rect x="138.358" y="0.293945" width="54.8582" height="53.8166" fill="#460E7B" fill-opacity="0.2"/>
<path d="M28.9897 0.806641H85.6836L28.9897 56.5831V0.806641Z" fill="#460E7B" fill-opacity="0.6"/>
<rect x="-6.30371" y="91.1172" width="54.8582" height="53.8166" fill="#460E7B" fill-opacity="0.2"/>
<rect y="0.801758" width="28.5612" height="55.6943" fill="#460E7B" fill-opacity="0.2"/>
<path d="M-36.7007 610.765L53.0515 521.187V575.003L-36.7007 664.408V610.765Z" fill="#460E7B" fill-opacity="0.6"/>
<rect x="52.9814" y="521.615" width="54.8582" height="53.8166" fill="#460E7B" fill-opacity="0.2"/>
<path d="M-17.084 754.49L72.6682 664.911V718.728L-17.084 808.133V754.49Z" fill="#460E7B" fill-opacity="0.6"/>
<rect x="72.668" y="664.911" width="54.8582" height="53.8166" fill="#460E7B" fill-opacity="0.2"/>
<path d="M-36.7007 664.564H18.5047L-36.7007 719.77V664.564Z" fill="#460E7B" fill-opacity="0.6"/>
<path d="M127.526 665.034L217.279 575.455V629.272L127.526 718.677V665.034Z" fill="#460E7B" fill-opacity="0.6"/>
<rect x="217.208" y="575.881" width="54.8582" height="53.8166" fill="#460E7B" fill-opacity="0.2"/>
<path d="M108.533 574.883H163.739L108.533 630.088V574.883Z" fill="#460E7B" fill-opacity="0.6"/>
<path d="M580.843 541.092L670.595 451.514V505.33L580.843 594.735V541.092Z" fill="#460E7B" fill-opacity="0.6"/>
<rect x="670.596" y="451.514" width="54.8582" height="53.8166" fill="#460E7B" fill-opacity="0.2"/>
<path d="M561.227 451.168H616.432L561.227 506.373V451.168Z" fill="#460E7B" fill-opacity="0.6"/>
<path d="M725.506 451.741L815.258 362.162V415.979L725.506 505.384V451.741Z" fill="#460E7B" fill-opacity="0.6"/>
<path d="M705.89 361.816H761.095L705.89 417.022V361.816Z" fill="#460E7B" fill-opacity="0.6"/>
<path d="M146.714 809.57L236.466 719.991V773.808L146.714 863.213V809.57Z" fill="#460E7B" fill-opacity="0.6"/>
<rect x="236.466" y="719.991" width="54.8582" height="53.8166" fill="#460E7B" fill-opacity="0.2"/>
<path d="M127.098 719.644H182.303L127.098 774.849V719.644Z" fill="#460E7B" fill-opacity="0.6"/>
<path d="M291.376 720.216L381.128 630.638V684.454L291.376 773.859V720.216Z" fill="#460E7B" fill-opacity="0.6"/>
<rect x="381.128" y="630.638" width="54.8582" height="53.8166" fill="#460E7B" fill-opacity="0.2"/>
<path d="M271.76 630.29H326.965L271.76 685.495V630.29Z" fill="#460E7B" fill-opacity="0.6"/>
<path d="M435.987 630.761L525.739 541.183V594.999L435.987 684.404V630.761Z" fill="#460E7B" fill-opacity="0.6"/>
<rect x="525.669" y="541.609" width="54.8582" height="53.8166" fill="#460E7B" fill-opacity="0.2"/>
<path d="M416.994 540.609H472.199L416.994 595.815V540.609Z" fill="#460E7B" fill-opacity="0.6"/>
<path d="M455.175 773.866L544.927 684.287V738.104L455.175 827.509V773.866Z" fill="#460E7B" fill-opacity="0.6"/>
<rect x="544.927" y="684.287" width="54.8582" height="53.8166" fill="#460E7B" fill-opacity="0.2"/>
<path d="M435.559 683.941H490.764L435.559 739.147V683.941Z" fill="#460E7B" fill-opacity="0.6"/>
<path d="M599.837 684.512L689.59 594.934V648.75L599.837 738.155V684.512Z" fill="#460E7B" fill-opacity="0.6"/>
<rect x="689.59" y="594.934" width="54.8582" height="53.8166" fill="#460E7B" fill-opacity="0.2"/>
<path d="M580.221 594.587H635.427L580.221 649.792V594.587Z" fill="#460E7B" fill-opacity="0.6"/>
<path d="M744.448 595.057L834.2 505.479V559.295L744.448 648.7V595.057Z" fill="#460E7B" fill-opacity="0.6"/>
<path d="M725.455 504.906H780.66L725.455 560.112V504.906Z" fill="#460E7B" fill-opacity="0.6"/>
<path d="M329.505 1008.07L419.257 918.491V972.308L329.505 1061.71V1008.07Z" fill="#460E7B" fill-opacity="0.6"/>
<rect x="419.257" y="918.491" width="54.8582" height="53.8166" fill="#460E7B" fill-opacity="0.2"/>
<path d="M309.889 918.145H365.094L309.889 973.35V918.145Z" fill="#460E7B" fill-opacity="0.6"/>
<path d="M474.167 918.715L563.92 829.137V882.953L474.167 972.358V918.715Z" fill="#460E7B" fill-opacity="0.6"/>
<rect x="563.92" y="829.137" width="54.8582" height="53.8166" fill="#460E7B" fill-opacity="0.2"/>
<path d="M454.551 828.79H509.757L454.551 883.995V828.79Z" fill="#460E7B" fill-opacity="0.6"/>
<path d="M618.778 829.259L708.53 739.681V793.497L618.778 882.902V829.259Z" fill="#460E7B" fill-opacity="0.6"/>
<rect x="708.46" y="740.107" width="54.8582" height="53.8166" fill="#460E7B" fill-opacity="0.2"/>
<path d="M599.785 739.109H654.99L599.785 794.315V739.109Z" fill="#460E7B" fill-opacity="0.6"/>
<path d="M637.966 972.368L727.718 882.789V936.606L637.966 1026.01V972.368Z" fill="#460E7B" fill-opacity="0.6"/>
<rect x="727.718" y="882.789" width="54.8582" height="53.8166" fill="#460E7B" fill-opacity="0.2"/>
<path d="M618.35 882.441H673.555L618.35 937.647V882.441Z" fill="#460E7B" fill-opacity="0.6"/>
<path d="M782.628 883.014L872.381 793.436V847.252L782.628 936.657V883.014Z" fill="#460E7B" fill-opacity="0.6"/>
<path d="M763.012 793.089H818.218L763.012 848.294V793.089Z" fill="#460E7B" fill-opacity="0.6"/>
<path d="M763.635 739.595L853.387 650.017V703.833L763.635 793.238V739.595Z" fill="#460E7B" fill-opacity="0.6"/>
<path d="M744.019 649.669H799.224L744.019 704.874V649.669Z" fill="#460E7B" fill-opacity="0.6"/>
<path d="M21.0444 1042.34L110.797 952.765V1006.58L21.0444 1095.99V1042.34Z" fill="#460E7B" fill-opacity="0.6"/>
<rect x="110.797" y="952.765" width="54.8582" height="53.8166" fill="#460E7B" fill-opacity="0.2"/>
<path d="M1.42822 952.418H56.6336L1.42822 1007.62V952.418Z" fill="#460E7B" fill-opacity="0.6"/>
<path d="M165.708 952.99L255.46 863.411V917.228L165.708 1006.63V952.99Z" fill="#460E7B" fill-opacity="0.6"/>
<rect x="255.459" y="863.411" width="54.8582" height="53.8166" fill="#460E7B" fill-opacity="0.2"/>
<path d="M146.091 863.064H201.296L146.091 918.27V863.064Z" fill="#460E7B" fill-opacity="0.6"/>
<path d="M310.317 863.536L400.07 773.957V827.774L310.317 917.179V863.536Z" fill="#460E7B" fill-opacity="0.6"/>
<rect x="400" y="774.384" width="54.8582" height="53.8166" fill="#460E7B" fill-opacity="0.2"/>
<path d="M291.324 773.384H346.53L291.324 828.589V773.384Z" fill="#460E7B" fill-opacity="0.6"/>
<path d="M1.85645 897.804L91.6086 808.226V862.042L1.85645 951.447V897.804Z" fill="#460E7B" fill-opacity="0.6"/>
<rect x="91.5391" y="808.652" width="54.8582" height="53.8166" fill="#460E7B" fill-opacity="0.2"/>
<path d="M-17.1367 807.653H38.0687L-17.1367 862.859V807.653Z" fill="#460E7B" fill-opacity="0.6"/>
<path d="M493.109 1059.18L582.862 969.597V1023.41L493.109 1112.82V1059.18Z" fill="#460E7B" fill-opacity="0.6"/>
<rect x="582.791" y="970.023" width="54.8582" height="53.8166" fill="#460E7B" fill-opacity="0.2"/>
<path d="M474.116 969.024H529.321L474.116 1024.23V969.024Z" fill="#460E7B" fill-opacity="0.6"/>
<path d="M802.621 1024.39L892.373 934.811V988.627L802.621 1078.03V1024.39Z" fill="#460E7B" fill-opacity="0.6"/>
<path d="M783.005 934.463H838.21L783.005 989.668V934.463Z" fill="#460E7B" fill-opacity="0.6"/>
<path d="M192.412 1.28657L282.164 -88.292V-34.4754L192.412 54.9295V1.28657Z" fill="#460E7B" fill-opacity="0.6"/>
</g>
</g>
<defs>
<clipPath id="clip0">
<rect width="812.153" height="1004.39" fill="white" transform="translate(0 0.802734)"/>
</clipPath>
<clipPath id="clip1">
<rect width="941.619" height="1004.39" fill="white" transform="translate(0 0.802734)"/>
</clipPath>
</defs>
</svg>
